<svg width="20" height="20" viewBox="0 0 20 20" fill="none" xmlns="http://www.w3.org/2000/svg">
<path d="M5.83366 6.66667H12.5003M5.83366 10H9.16699M15.5974 17.5249V17.5249C16 17.7665 16.2013 17.8872 16.3553 17.9391C17.2015 18.2238 18.1076 17.7108 18.2989 16.8387C18.3337 16.6799 18.3337 16.4452 18.3337 15.9757V9.66667C18.3337 6.86641 18.3337 5.46628 17.7887 4.39672C17.3093 3.45591 16.5444 2.69101 15.6036 2.21164C14.5341 1.66667 13.1339 1.66667 10.3337 1.66667H9.16699C6.83728 1.66667 5.67243 1.66667 4.75358 2.04727C3.52843 2.55474 2.55506 3.52811 2.04759 4.75325C1.66699 5.67211 1.66699 6.83696 1.66699 9.16667V9.16667C1.66699 11.4964 1.66699 12.6612 2.04759 13.5801C2.55506 14.8052 3.52843 15.7786 4.75358 16.2861C5.67243 16.6667 6.83728 16.6667 9.16699 16.6667H12.4989C12.7798 16.6667 12.9202 16.6667 13.0582 16.6743C13.7764 16.714 14.4776 16.9082 15.1139 17.2437C15.2361 17.3081 15.3565 17.3804 15.5974 17.5249Z" stroke="#4B5563" stroke-width="1.5" stroke-linecap="round" stroke-linejoin="round"/>
</svg>
